<svg width="134" height="134" viewBox="0 0 134 134" fill="none" xmlns="http://www.w3.org/2000/svg">
<path d="M81.5357 0.0463997C82.76 -0.00133326 84.0052 0.059182 85.2319 0.0569945C86.1907 0.0552968 87.3937 -0.0943668 88.3182 0.0982953C88.6893 0.175657 89.3326 0.602364 89.6118 0.850481C90.2715 1.43652 90.2596 3.15484 90.2789 3.9844C90.3854 8.5503 90.2759 13.139 90.2797 17.7073L90.2851 23.4624C90.2857 24.5112 90.3389 25.5901 90.256 26.6359C90.2309 26.9547 90.1495 27.243 90.0277 27.5391C89.4541 28.9342 88.7454 29.9381 87.8716 31.1631C86.6458 32.8811 85.3198 34.5147 84.0519 36.2037L73.1537 50.4373L29.8871 106.963L15.479 125.768C14.3668 127.201 13.3376 128.691 12.2195 130.123C11.7433 130.733 11.2958 131.368 10.7366 131.914C10.3609 132.281 9.60897 133.012 9.06074 133.018C8.96981 133.118 8.87081 133.209 8.77127 133.302C8.23341 133.41 2.86601 133.422 2.2408 133.292C1.63414 133.166 0.872271 132.519 0.550306 132.027C0.446494 130.812 0.518254 129.567 0.518925 128.347L0.520404 121.73L0.52068 111.364C0.520077 109.629 0.466296 107.883 0.521024 106.15C0.532689 105.78 0.516705 105.222 0.716364 104.896C1.42378 103.747 2.18696 102.632 3.00592 101.552C3.41207 101.021 3.86515 100.522 4.26866 99.9888L11.1801 90.9981C18.4129 81.428 25.7167 71.9071 33.0916 62.4354L63.2131 23.1166L74.8007 7.90903C75.237 7.34648 75.7165 6.81613 76.1559 6.25627C77.3571 4.72529 78.4214 3.09987 79.6733 1.60394C80.307 0.846792 81.0227 0.661296 81.4934 0.100206C81.508 0.0827056 81.5216 0.0643403 81.5357 0.0463997Z" fill="#7E73FD"/>
<path d="M99.6877 0.0162264L122.78 0.0815236L129.159 0.0763967C130.11 0.0689836 131.217 -0.0839978 132.145 0.0640359C132.656 0.145548 133.171 0.630323 133.461 1.03039L133.803 1.49452C133.954 2.58265 133.839 3.7004 133.83 4.79592L133.822 9.82245V29.6144L133.823 96.8867L133.822 122.795C133.823 124.151 133.972 131.202 133.746 131.828C133.73 131.874 133.711 131.906 133.685 131.947C133.67 131.971 133.654 131.994 133.638 132.017C133.315 132.513 132.858 133.159 132.238 133.308C131.803 133.413 124.528 133.399 123.611 133.339C123.447 133.329 123.369 133.305 123.23 133.229C123.2 133.245 123.171 133.262 123.141 133.277C122.956 133.366 102.347 133.409 100.449 133.349C100.26 133.343 100.118 133.321 99.9416 133.252C99.9181 133.247 99.8932 133.247 99.8711 133.238C99.3883 133.042 98.9991 132.453 98.8325 131.997C98.6111 131.389 98.5666 130.627 98.5341 129.988C98.4711 128.751 98.5195 127.494 98.5201 126.255L98.5255 119.252L98.5206 111.975C98.52 110.69 98.4736 109.39 98.5355 108.107C98.5621 107.556 98.5956 106.807 98.8648 106.309C99.0653 105.939 99.3957 105.702 99.8043 105.579C100.339 105.418 100.911 105.456 101.464 105.461C102.893 105.473 104.547 105.667 105.924 105.257C106.658 105.038 107.325 104.67 107.679 103.981C108.025 103.308 108.11 102.423 108.127 101.681C108.228 97.2426 108.123 92.777 108.123 88.3361L108.125 61.0787L108.126 41.1459L108.126 34.6152C108.126 33.4309 108.163 32.2325 108.11 31.0499C108.092 30.6533 107.978 30.2787 107.838 29.908C107.645 29.3929 107.423 28.9657 106.942 28.646C105.761 27.859 102.953 28.1952 101.488 28.0513C100.586 27.9628 99.8299 27.7265 99.0133 27.3534C98.9129 27.1053 98.8205 26.8582 98.7665 26.5963C98.681 26.1824 98.6797 25.7371 98.6446 25.3158C98.5045 23.6389 98.5206 21.9796 98.521 20.2984L98.5249 11.0926L98.5193 5.48536C98.5168 4.36371 98.4243 3.16719 98.5961 2.06009C98.7319 1.18621 99.0363 0.974559 99.4872 0.292798C99.5509 0.196443 99.6161 0.107078 99.6877 0.0162264Z" fill="#7E73FD"/>
</svg>
